<svg xmlns="http://www.w3.org/2000/svg" viewBox="0 0 100 100" width="100" height="100">
  <!-- Globe Outline with Location Marker -->
  <circle cx="50" cy="55" r="38" fill="none" stroke="#1a3a32" stroke-width="2"/>
  <!-- Globe lines -->
  <ellipse cx="50" cy="55" rx="38" ry="14" fill="none" stroke="#1a3a32" stroke-width="1"/>
  <path d="M50 17 Q35 35 35 55 Q35 75 50 93" fill="none" stroke="#1a3a32" stroke-width="1"/>
  <path d="M50 17 Q65 35 65 55 Q65 75 50 93" fill="none" stroke="#1a3a32" stroke-width="1"/>
  <!-- Location marker -->
  <g transform="translate(50, 35)">
    <path d="M0 -20 C-10 -20 -15 -10 -15 -5 C-15 8 0 20 0 20 C0 20 15 8 15 -5 C15 -10 10 -20 0 -20" fill="#e74c3c"/>
    <circle cx="0" cy="-5" r="5" fill="#fff"/>
  </g>
</svg>