<svg xmlns="http://www.w3.org/2000/svg" viewBox="0 0 100 100" width="100" height="100">
  <!-- Dotted Compass Ring Pin -->
  <path d="M50 5 C25 5 15 25 15 40 C15 65 50 95 50 95 C50 95 85 65 85 40 C85 25 75 5 50 5" fill="#1a3a32"/>
  <circle cx="50" cy="40" r="24" fill="#fff"/>
  <circle cx="50" cy="40" r="20" fill="none" stroke="#2d5a4a" stroke-width="2" stroke-dasharray="4,3"/>
  <!-- Direction dots -->
  <circle cx="50" cy="22" r="2" fill="#e74c3c"/>
  <circle cx="50" cy="58" r="2" fill="#1a3a32"/>
  <circle cx="68" cy="40" r="2" fill="#2d5a4a"/>
  <circle cx="32" cy="40" r="2" fill="#2d5a4a"/>
  <!-- Needle -->
  <polygon points="50,26 53,38 50,42 47,38" fill="#e74c3c"/>
  <polygon points="50,54 53,42 50,38 47,42" fill="#1a3a32"/>
  <circle cx="50" cy="40" r="3" fill="#1a3a32"/>
</svg>
