<svg xmlns="http://www.w3.org/2000/svg" viewBox="0 0 100 100" width="100" height="100">
  <!-- Split Color Pin -->
  <defs>
    <clipPath id="leftHalf">
      <rect x="0" y="0" width="50" height="100"/>
    </clipPath>
    <clipPath id="rightHalf">
      <rect x="50" y="0" width="50" height="100"/>
    </clipPath>
  </defs>
  <g clip-path="url(#leftHalf)">
    <path d="M50 5 C25 5 15 25 15 40 C15 65 50 95 50 95 C50 95 85 65 85 40 C85 25 75 5 50 5" fill="#1a3a32"/>
  </g>
  <g clip-path="url(#rightHalf)">
    <path d="M50 5 C25 5 15 25 15 40 C15 65 50 95 50 95 C50 95 85 65 85 40 C85 25 75 5 50 5" fill="#2d5a4a"/>
  </g>
  <circle cx="50" cy="40" r="22" fill="#fff"/>
  <polygon points="50,22 54,38 50,42 46,38" fill="#e74c3c"/>
  <polygon points="50,58 54,42 50,38 46,42" fill="#1a3a32"/>
  <circle cx="50" cy="40" r="3" fill="#2d5a4a"/>
</svg>
