<svg xmlns="http://www.w3.org/2000/svg" viewBox="0 0 100 100" width="100" height="100">
  <!-- Compass Rose Inside Pin -->
  <path d="M50 5 C25 5 15 25 15 40 C15 65 50 95 50 95 C50 95 85 65 85 40 C85 25 75 5 50 5" fill="#1a3a32"/>
  <circle cx="50" cy="40" r="24" fill="#fff"/>
  <!-- 8-point rose -->
  <polygon points="50,18 53,36 50,40 47,36" fill="#e74c3c"/>
  <polygon points="50,62 53,44 50,40 47,44" fill="#1a3a32"/>
  <polygon points="72,40 54,43 50,40 54,37" fill="#2d5a4a"/>
  <polygon points="28,40 46,43 50,40 46,37" fill="#2d5a4a"/>
  <!-- Diagonal points -->
  <polygon points="65,25 53,38 50,40 52,36" fill="#8fbc8f"/>
  <polygon points="35,55 47,42 50,40 48,44" fill="#8fbc8f"/>
  <polygon points="65,55 53,42 50,40 52,44" fill="#8fbc8f"/>
  <polygon points="35,25 47,38 50,40 48,36" fill="#8fbc8f"/>
  <circle cx="50" cy="40" r="4" fill="#1a3a32"/>
</svg>
