<svg xmlns="http://www.w3.org/2000/svg" viewBox="0 0 100 100" width="100" height="100">
  <!-- 3D Shadow Effect Pin -->
  <!-- Shadow -->
  <ellipse cx="52" cy="94" rx="18" ry="4" fill="#ccc" opacity="0.5"/>
  <!-- Pin -->
  <path d="M50 5 C25 5 15 25 15 40 C15 65 50 88 50 88 C50 88 85 65 85 40 C85 25 75 5 50 5" fill="#1a3a32"/>
  <!-- Highlight -->
  <path d="M35 20 C28 28 25 38 28 48" fill="none" stroke="#8fbc8f" stroke-width="3" stroke-linecap="round" opacity="0.5"/>
  <circle cx="50" cy="40" r="22" fill="#fff"/>
  <polygon points="50,22 54,38 50,42 46,38" fill="#e74c3c"/>
  <polygon points="50,58 54,42 50,38 46,42" fill="#1a3a32"/>
  <circle cx="50" cy="40" r="3" fill="#2d5a4a"/>
</svg>
